<?xml version="1.0" standalone="no"?><!DOCTYPE svg PUBLIC "-//W3C//DTD SVG 1.1//EN" "http://www.w3.org/Graphics/SVG/1.1/DTD/svg11.dtd"><svg t="1538836284507" class="icon" style="" viewBox="0 0 1024 1024" version="1.1" xmlns="http://www.w3.org/2000/svg" p-id="639" xmlns:xlink="http://www.w3.org/1999/xlink" width="200" height="200"><defs><style type="text/css"></style></defs><path d="M896 170.666667H128a42.666667 42.666667 0 0 0-42.666667 42.666666v597.333334a42.666667 42.666667 0 0 0 42.666667 42.666666h768a42.666667 42.666667 0 0 0 42.666667-42.666666V213.333333a42.666667 42.666667 0 0 0-42.666667-42.666666z m-42.666667 597.333333H170.666667V256h682.666666v512z" fill="" p-id="640"></path><path d="M298.666667 682.666667h170.666666v-85.333334H341.333333v-170.666666h128V341.333333H298.666667a42.666667 42.666667 0 0 0-42.666667 42.666667v256a42.666667 42.666667 0 0 0 42.666667 42.666667z m298.666666 0h170.666667v-85.333334h-128v-170.666666h128V341.333333h-170.666667a42.666667 42.666667 0 0 0-42.666666 42.666667v256a42.666667 42.666667 0 0 0 42.666666 42.666667z" fill="" p-id="641"></path></svg>